<?xml version="1.0" encoding="UTF-8"?>
<svg width="800px" height="500px" viewBox="0 0 800 500" version="1.1" xmlns="http://www.w3.org/2000/svg">
    <title>US Map Outline</title>
    <g stroke="#000000" stroke-width="1" fill="none" fill-rule="evenodd">
        <!-- Continental US simplified outline -->
        <path d="M165,135 C175,125 190,120 210,115 C230,110 250,105 270,100 C290,95 310,90 330,85 C350,80 370,75 390,70 C410,65 430,60 450,55 C470,50 490,45 510,40 C530,35 550,30 570,35 C590,40 610,45 630,60 C650,75 670,90 680,110 C690,130 695,150 700,170 C705,190 710,210 715,230 C720,250 725,270 720,290 C715,310 710,330 700,350 C690,370 680,390 665,405 C650,420 635,435 615,445 C595,455 575,465 555,470 C535,475 515,480 495,485 C475,490 455,495 435,490 C415,485 395,480 375,475 C355,470 335,465 315,460 C295,455 275,450 255,445 C235,440 215,435 195,430 C175,425 155,420 135,415 C115,410 95,405 85,390 C75,375 70,355 65,335 C60,315 55,295 60,275 C65,255 70,235 80,215 C90,195 100,175 115,160 C130,145 145,140 165,135 Z" stroke-width="2"></path>
        
        <!-- Alaska simplified outline -->
        <path d="M50,180 C60,175 70,170 80,165 C90,160 100,155 110,160 C120,165 130,170 140,180 C150,190 160,200 155,210 C150,220 145,230 135,235 C125,240 115,245 105,250 C95,255 85,260 75,255 C65,250 55,245 50,235 C45,225 40,215 45,205 C50,195 55,185 50,180 Z" stroke-width="2"></path>
        
        <!-- Hawaii simplified outline -->
        <path d="M180,300 C185,295 190,290 195,295 C200,300 205,305 200,310 C195,315 190,320 185,315 C180,310 175,305 180,300 Z" stroke-width="2"></path>
        <path d="M200,310 C205,305 210,300 215,305 C220,310 225,315 220,320 C215,325 210,330 205,325 C200,320 195,315 200,310 Z" stroke-width="2"></path>
        <path d="M220,320 C225,315 230,310 235,315 C240,320 245,325 240,330 C235,335 230,340 225,335 C220,330 215,325 220,320 Z" stroke-width="2"></path>
    </g>
</svg> 