<svg xmlns="http://www.w3.org/2000/svg" viewBox="0 0 959 593" width="959" height="593">
  <title>United States Map</title>
  <g fill="#e6e6e6" stroke="#cccccc" stroke-width="1">
    <!-- Continental US outline -->
    <path d="M161 453l15 19 1 1 1 3 9 4 2 5 2 2-2 2-2 11-3 5-1 4-5 5-2 1-1 3-5 5-5 2-4 0-2 0-2-1-3-1-6-1-6 0-5-2-1-1 2-9-0-2-1-1-2-1-3-1-2-2-2-4-0-5 0-10 0-2-1-2-2-2-5-3-5-2-6-2-3-2-1-2 0-2 1-1 3-2 1-1 0-1-1-1-4-4-2-1-2-0-2 2-2 2-3 0-3-1-2-1-1-2-3-3-2-1-2-1-2-0-1-2-1-3-1-1-2-0-6 1-6 0-5-2-4-3-3-3-5-3-5-1-4 1-5 1-4-1-3-2-5-2-3-1-4 0-4 2-4 0-4-1-6-2-2-0-1-1-1-1-3-4-2-1-3-2-1-2-0-3 0-4-1-2-2-1-3-1-3-4-3-5-3-3-0-2 1-3 3-7 1-1 2-0 8 3 6 1 5 1 2 2 2 2 3 3 2 0 3-2 3-3 2-1 2 0 1 1 1 2 2 3 2 4 3 2 4 1 3-0 2-2 1-4 1-4 2-3 2-2 3-1 5 1 3 1 2 2 6 5 6 2 7 1 6-0 5-2 4-3 2-4 1-5 1-5 2-4 4-3 5-1 4 0 6 2 6 1-1 1-1 1-1 3-0 4 1 3 5 7 2 3 4 3 7 3 3 2 2 3 3 4 3 5 2 3 1 4 0 4-1 5-1 5-0 5 2 6 0 6-0 5-1 4-3 3-3 2-4 2 0 3 0 2-0 5-1 6-0 3 1 6 4 5 5 5 4 4 0 3-1 2-1 2-4 3-4 2-4 0-4-1-3-1-5-1-5 0-4 3-0 3 1 4 0 4-3 7-2 7-0 5 0 5-1 4-2 4-0 5 1 5 1 10 0 0 2 1 2 2 2 1"></path>
    <!-- Alaska -->
    <path d="M158 453L103 413 46 392 20 373 17 390 7 410 10 439 13 458 31 470 42 475 71 494 76 499 93 507 108 507 136 498 158 483"></path>
    <!-- Hawaii -->
    <path d="M231 507L234 510 238 514 241 516 242 517 243 518 246 522 249 524 252 525 255 524 257 522 258 521 257 519 255 518 253 516 251 515 248 514 246 513 244 511 240 508 237 507 233 505 229 506"></path>
    <!-- Florida -->
    <path d="M762 440L757 433 751 427 749 426 747 427 744 432 739 437 733 439 731 438 729 436 727 434 725 434 723 436 723 439 724 442 727 445 729 448 731 450 732 453 731 456 730 458 728 459 725 458 723 457 721 458 720 461 721 465 724 467 728 466 732 466 736 466 740 468 743 470 746 471 749 470 752 467 755 464 757 462 756 459 754 456 752 454 750 452 749 450 750 447 752 445 755 444 758 442 761 440"></path>
  </g>
</svg> 